<?xml version="1.0" encoding="UTF-8" standalone="no"?>
<svg
   width="506.0925"
   height="444.11896"
   viewBox="0 0 506.0925 444.11895"
   role="img"
   artist="Katerina Limpitsouni"
   source="https://undraw.co/"
   version="1.1"
   id="svg29"
   sodipodi:docname="message-sent.svg"
   inkscape:version="1.4.2 (ebf0e940d0, 2025-05-08)"
   xmlns:inkscape="http://www.inkscape.org/namespaces/inkscape"
   xmlns:sodipodi="http://sodipodi.sourceforge.net/DTD/sodipodi-0.dtd"
   xmlns="http://www.w3.org/2000/svg"
   xmlns:svg="http://www.w3.org/2000/svg">
  <defs
     id="defs29" />
  <sodipodi:namedview
     id="namedview29"
     pagecolor="#ffffff"
     bordercolor="#000000"
     borderopacity="0.25"
     inkscape:showpageshadow="2"
     inkscape:pageopacity="0.0"
     inkscape:pagecheckerboard="0"
     inkscape:deskcolor="#d1d1d1"
     inkscape:zoom="1.9641086"
     inkscape:cx="175.6522"
     inkscape:cy="318.71964"
     inkscape:window-width="2560"
     inkscape:window-height="1371"
     inkscape:window-x="0"
     inkscape:window-y="0"
     inkscape:window-maximized="1"
     inkscape:current-layer="svg29" />
  <path
     d="m 358.15992,229.84954 80,2 c 15.19373,8.25247 15.42444,26.11377 10.44617,47.32025 0,0 1.68058,12.60446 -1.68061,15.96565 -3.36119,3.36119 -5.04179,3.36119 -3.36119,9.24328 1.6806,5.88209 -7.19878,15.48928 -6.12029,16.56777 1.07849,1.07849 3.59939,6.96058 3.59939,6.96058 l -8.403,47.897 c 0,0 -5.88209,53.18952 -7.56268,54.87011 -1.68059,1.68059 -3.36119,0 -1.6806,4.20149 1.68059,4.20149 3.36119,2.5209 1.6806,4.20149 -1.48868,1.6051 -2.89115,3.28807 -4.20149,5.04179 h -20.316 c 0,0 -1.53172,-8.403 -1.53172,-9.24328 0,-0.84028 -1.6806,-5.88208 -1.6806,-6.72238 0,-0.8403 1.48541,-2.32571 1.48541,-2.32571 0.51329,-1.70818 0.86007,-3.46202 1.03548,-5.237 0,-1.68059 5.04179,-36.38355 5.04179,-36.38355 l -10.08357,-84.02981 -24.36865,82.34922 c 0,0 0,42.26563 -1.6806,43.94623 -1.6806,1.6806 -1.68059,0.8403 -0.84029,4.20149 0.8403,3.36119 4.20149,2.5209 1.68059,5.04179 -2.5209,2.52089 -3.36119,-1.6806 -2.52089,2.52089 l 0.8403,4.2015 -25.209,0.3606 c 0,0 -3.36119,-7.083 -1.68059,-9.60388 1.6806,-2.52088 1.57976,-1.83278 -0.47057,-5.95818 -2.05033,-4.1254 -2.89063,-4.9657 -2.05033,-5.806 0.8403,-0.8403 0.8403,-5.30976 0.8403,-5.30976 l 4.20149,-50.40065 c 0,0 0.8403,-84.87011 0.8403,-87.391 0.0634,-1.29716 -0.1756,-2.59129 -0.698,-3.7803 v -3.42178 L 346.93,259.00261 Z"
     fill="#2f2e41"
     id="path5"
     sodipodi:nodetypes="cccsssccsscccsscccccssssccsssccccccc" />
  <circle
     cx="406.21701"
     cy="38.645691"
     r="24.856449"
     fill="#ffb6b6"
     id="circle5" />
  <path
     d="m 393.78879,79.930533 c -5.355,3.18356 -8.55835,9.03293 -10.39722,14.98517 a 142.00821,142.00821 0 0 0 -6.10242,33.928917 l -1.94226,34.47532 -24.05462,73.40765 c 20.84735,17.64 99.20941,4.00906 99.20941,4.00906 0,0 2.40545,-0.80179 0,-3.20727 -2.40545,-2.40548 -4.74722,-0.27435 -2.34176,-2.67984 2.40546,-2.40549 0.74721,0.27435 -0.0546,-2.13114 -0.80181,-2.40549 0,-0.80178 0.80181,-1.60363 0.80181,-0.80185 -6.20727,-8.01825 -6.20727,-8.01825 l 6.41456,-42.13666 8.01819,-84.992997 c -9.62189,-12.02732 -28.97268,-19.11734 -28.97268,-19.11734 l -5,-9 -25,2 z"
     fill="#e6e6e6"
     id="path6" />
  <path
     d="m 390.37965,24.058032 a 11.74568,11.74568 0 0 1 2.85009,0.374 40.56522,40.56522 0 0 0 5.57911,0.93554 25.8518,25.8518 0 0 1 23.14794,21.92774 c 1.44434,-1.25928 4.731,-3.57568 7.42481,-1.42285 v 0 c 0.041,0.0342 0.0649,0.0518 0.15967,0.007 1.78906,-0.84863 4.96484,-11.29492 5.061,-20.49267 0.0508,-4.88184 -0.71777,-11.11572 -4.666,-13.08985 l -0.208,-0.104 -0.0547,-0.22607 c -0.26367,-1.09815 -3.21094,-2.9726603 -8.333,-4.4316403 -9.30859,-2.65137 -23.18418,-7.81629004 -30.99766,-0.21521 -0.5913,2.5625 -2.515,8.0462603 -4.45839,8.6678403 -2.15186,0.688 -4.01026,1.28174 -4.30322,3.92139 a 80.90954,80.90954 0 0 0 0.0532,11.2793 11.51926,11.51926 0 0 1 4.09228,-5.74854 8.11106,8.11106 0 0 1 4.65284,-1.38181 z"
     fill="#2f2e41"
     id="path7" />
  <path
     d="m 344.11456,161.40078 40.60315,-26.00339 -20.4505,-27.18528 -20.19359,24.84 -62.91881,3.85893 a 11.99113,11.99113 0 1 0 -0.67121,17.67065 z"
     fill="#ffb6b6"
     id="path8" />
  <path
     d="m 422.40291,99.101843 c 2.35656,14.261667 -42.14558,41.495357 -42.14558,41.495357 -7e-4,-3.34743 -26.56183,21.92349 -27.76074,19.14726 -3.40742,-7.8903 -5.80313,-26.57884 -10.56448,-29.57011 -2.72294,-1.71066 16.39926,-17.78078 16.39926,-17.78078 0,0 10.00953,-10.08383 23.14493,-22.803067 a 30.64421,30.64421 0 0 1 28.38206,-8.29616 c 0,0 10.18797,3.54585 12.54455,17.8075 z"
     fill="#e6e6e6"
     id="path9" />
  <path
     d="m 506.09251,168.2263 -26.8573,-40.04345 -26.74616,21.02154 25.26206,19.66309 5.19033,62.823 a 11.99111,11.99111 0 1 0 17.68089,0.29689 z"
     fill="#ffb6b6"
     id="path10" />
  <path
     d="m 442.14984,91.274683 c 14.20857,-2.658 42.37846,41.257497 42.37846,41.257497 -3.34667,0.0716 22.481,26.09165 19.73078,27.34908 -7.81638,3.57373 -26.45,6.36462 -29.33979,11.18824 -1.65262,2.75855 -18.124,-16.01909 -18.124,-16.01909 0,0 -10.29352,-9.79376 -23.288,-22.6569 a 30.64421,30.64421 0 0 1 -8.89528,-28.2 c 0,0 3.32928,-10.260827 17.53783,-12.918827 z"
     fill="#e6e6e6"
     id="path11" />
  <path
     d="M 269.06167,173.00602 H 14.97312 A 14.990034,14.990034 0 0 0 0,187.97913 V 346.1734 a 14.990169,14.990169 0 0 0 14.97312,14.97312 H 269.06146 A 14.990079,14.990079 0 0 0 284.03479,346.1734 V 187.97913 a 14.9899,14.9899 0 0 0 -14.97312,-14.97311 z"
     fill="#eab308"
     id="path13"
     style="stroke-width:0.746946" />
  <path
     d="M 269.06167,173.00602 H 14.97312 A 14.990034,14.990034 0 0 0 0,187.97913 V 346.1734 a 14.990169,14.990169 0 0 0 14.97312,14.97312 H 269.06146 A 14.990079,14.990079 0 0 0 284.03479,346.1734 V 187.97913 a 14.9899,14.9899 0 0 0 -14.97312,-14.97311 z m 4.91374,113.63292 a 61.552992,61.552992 0 0 1 -60.51638,61.31209 c -25.78191,0.33561 14.26487,0.46648 -16.82997,0.46648 -71.10377,0 -145.24529,-0.67945 -172.90833,-1.12 A 13.949083,13.949083 0 0 1 10.05938,333.40531 V 187.99087 a 4.9303045,4.9303045 0 0 1 4.91271,-4.92486 h 254.07929 a 4.9297892,4.9297892 0 0 1 4.92403,4.91169 z"
     fill="#3f3d56"
     id="path14"
     style="stroke-width:0.746946" />
  <path
     d="M 237.78376,81.912783 H 44.19499 a 8.3202278,8.3202278 0 0 0 -7.82126,5.5153 L 6.47527,171.30993 a 8.3035336,8.3035336 0 0 0 7.80961,11.09119 l 259.63429,0.46078 h 0.0116 a 8.3034141,8.3034141 0 0 0 7.63176,-11.57407 l -0.4527,0.19381 0.4527,-0.19381 -36.14694,-84.342627 a 8.293278,8.293278 0 0 0 -7.63179,-5.03242 z"
     fill="#3f3d56"
     id="path15"
     style="stroke-width:0.746946" />
  <path
     d="m 282.23467,173.10939 a 8.3252548,8.3252548 0 0 1 -0.67225,3.27163 l -36.1447,64.92451 a 8.3262408,8.3262408 0 0 1 -7.63378,5.02695 H 44.19803 a 8.3259345,8.3259345 0 0 1 -7.82799,-5.51246 L 6.47727,176.35861 a 8.2980585,8.2980585 0 0 1 5.03441,-10.60663 8.1693,8.1693 0 0 1 2.77117,-0.48552 l 31.71532,-0.0597 12.94456,-0.0224 170.3335,-0.29878 12.95203,-0.0224 31.69291,-0.0598 h 0.007 a 8.3074252,8.3074252 0 0 1 8.30603,8.306 z"
     fill="#3f3d56"
     id="path16"
     style="stroke-width:0.746946" />
  <path
     d="m 34.02159,291.66998 c 3.83881,0 56.55424,3.2217 56.55424,7.06052 0,3.83881 -52.71546,6.84104 -56.55424,6.84104 a 6.95078,6.95078 0 1 1 0,-13.90156 z"
     fill="#3f3d56"
     id="path17"
     style="stroke-width:0.746946" />
  <path
     d="M 225.72822,30.883487 H 62.49818 A 16.519129,16.519129 0 0 0 45.99815,47.383521 V 246.3325 h 191.78577 a 8.1995961,8.1995961 0 0 0 4.44433,-1.29222 V 47.383521 A 16.519167,16.519167 0 0 0 225.72822,30.883487 Z"
     fill="#e6e6e6"
     id="path18"
     style="stroke-width:0.746946" />
  <path
     d="M 163.42549,44.261262 H 73.97128 A 15.043224,15.043224 0 0 0 58.94273,59.282381 V 246.33251 h 170.3335 V 110.11203 A 65.926829,65.926829 0 0 0 163.42549,44.261262 Z"
     fill="#ffffff"
     id="path19"
     style="stroke-width:0.746946" />
  <path
     d="M 200.25739,229.72044 H 87.96157 a 3.6600338,3.6600338 0 1 0 0,7.32006 h 112.29582 a 3.6600338,3.6600338 0 1 0 0,-7.32006 z"
     fill="#e4e4e4"
     id="path20"
     style="stroke-width:0.746946" />
  <path
     d="M 200.25739,215.24463 H 87.96157 a 3.66377,3.66377 0 0 0 0,7.32754 h 112.29582 a 3.66377,3.66377 0 1 0 0,-7.32754 z"
     fill="#e4e4e4"
     id="path21"
     style="stroke-width:0.746946" />
  <path
     d="M 136.63999,200.77629 H 87.96154 a 3.660035,3.660035 0 1 0 0,7.32007 h 48.67845 a 3.660035,3.660035 0 1 0 0,-7.32007 z"
     fill="#e4e4e4"
     id="path22"
     style="stroke-width:0.746946" />
  <path
     d="M 200.25739,170.46523 H 87.96157 a 3.6637685,3.6637685 0 0 0 0,7.32753 h 112.29582 a 3.6637685,3.6637685 0 1 0 0,-7.32753 z"
     fill="#e4e4e4"
     id="path23"
     style="stroke-width:0.746946" />
  <path
     d="M 200.25739,155.99689 H 87.96157 a 3.660035,3.660035 0 1 0 0,7.32007 h 112.29582 a 3.660035,3.660035 0 1 0 0,-7.32007 z"
     fill="#e4e4e4"
     id="path24"
     style="stroke-width:0.746946" />
  <path
     d="M 136.63999,141.52108 H 87.96154 a 3.66377,3.66377 0 0 0 0,7.32754 h 48.67845 a 3.66377,3.66377 0 1 0 0,-7.32754 z"
     fill="#e4e4e4"
     id="path25"
     style="stroke-width:0.746946" />
  <path
     d="M 200.25739,111.21001 H 87.96157 a 3.66377,3.66377 0 0 0 0,7.32754 h 112.29582 a 3.66377,3.66377 0 1 0 0,-7.32754 z"
     fill="#eab308"
     id="path26"
     style="stroke-width:0.746946" />
  <path
     d="M 200.25739,96.741673 H 87.96157 a 3.6637705,3.6637705 0 0 0 0,7.327537 h 112.29582 a 3.6637705,3.6637705 0 1 0 0,-7.327537 z"
     fill="#eab308"
     id="path27"
     style="stroke-width:0.746946" />
  <path
     d="M 136.63999,82.265863 H 87.96154 a 3.66377,3.66377 0 0 0 0,7.32754 h 48.67845 a 3.66377,3.66377 0 1 0 0,-7.32754 z"
     fill="#eab308"
     id="path28"
     style="stroke-width:0.746946" />
  <circle
     cx="226.99988"
     cy="38.162819"
     r="38.162819"
     fill="#eab308"
     id="circle28" />
  <path
     d="m 221.79369,58.024791 a 4.24383,4.24383 0 0 1 -3.39572,-1.69838 l -10.4114,-13.882102 a 4.245,4.245 0 1 1 6.79214,-5.09376 l 6.8115,9.081302 17.49444,-26.241322 a 4.245165,4.245165 0 1 1 7.06438,4.70959 l -20.82282,31.234232 a 4.24687,4.24687 0 0 1 -3.41438,1.88909 c -0.0394,6.6e-4 -0.0787,0.001 -0.11814,0.001 z"
     fill="#ffffff"
     id="path29" />
</svg>
